<?xml version="1.0" encoding="UTF-8"?>
<svg id="katman_1" data-name="katman 1" xmlns="http://www.w3.org/2000/svg" viewBox="0 0 479 119.75">
  <defs>
    <style>
      .cls-1 {
        fill-rule: evenodd;
      }

      .cls-1, .cls-2 {
        fill: #fff;
        stroke-width: 0px;
      }
    </style>
  </defs>
  <path class="cls-1" d="m470.33,0h-102.05c-4.88,0-9.03,3.86-9.03,8.62v102.51c0,4.76,2.72,8.62,7.6,8.62h102.05c4.89,0,10.1-3.86,10.1-8.62V8.62c0-4.75-3.79-8.62-8.67-8.62Zm-65.46,45.62h16.12v8.22h.18c2.46-4.43,9.72-8.93,18.69-8.93,17.23,0,22.03,9.15,22.03,26.09v31.65h-17.11v-28.53c0-7.58-3.03-14.24-10.11-14.24-8.6,0-12.7,5.82-12.7,15.38v27.39h-17.11v-57.03h0Zm-28.51,57.03h17.11v-57.02h-17.11v57.02Zm19.24-76.98c0,5.91-4.78,10.69-10.69,10.69s-10.69-4.78-10.69-10.69,4.78-10.69,10.69-10.69,10.69,4.78,10.69,10.69Z"/>
  <g>
    <path class="cls-2" d="m342.14,102.65h-15.97v-6.79h-.17c-3.55,4.12-9.72,7.5-20.18,7.5-14.26,0-26.53-10.73-26.53-29.16s12.1-29.29,27.07-29.29c9.27,0,15.02,3.3,18.5,7.5h.17V17.11h17.11v85.54Zm-31.48-44.91c-9.78,0-15.28,6.97-15.28,16.25s5.5,16.54,15.28,16.54,15.52-7.08,15.52-16.54-5.73-16.25-15.52-16.25h0Z"/>
    <path class="cls-2" d="m271.78,93.46c-4.04,5.23-12.35,9.9-25.77,9.9-17.91,0-29.32-11.86-29.32-30.49,0-16.55,10.33-27.96,29.82-27.96,16.83,0,27.21,11.05,27.21,30.49,0,1.94-.31,3.87-.31,3.87h-40.57l.1,1.76c1.12,4.92,4.84,10.93,13.35,10.93,7.44,0,12.53-4,14.84-7.13l10.65,8.63Zm-14.53-25.03c.11-6.02-4.3-12.12-11.26-12.12-8.28,0-12.7,6.47-13.16,12.12h24.42Z"/>
    <polygon class="cls-2" points="216.69 45.62 196.73 45.62 176.77 68.43 176.77 17.11 159.67 17.11 159.67 102.65 176.77 102.65 176.77 74.14 197.87 102.65 218.06 102.65 193.88 71.47 216.69 45.62"/>
    <path class="cls-2" d="m91.24,45.62h16.12v8.22h.18c2.46-4.43,9.72-8.93,18.69-8.93,17.23,0,22.03,10.93,22.03,26.09v31.65h-17.11v-28.53c0-8.39-3.03-14.24-10.11-14.24-8.6,0-12.7,6.81-12.7,15.38v27.39h-17.11v-57.03h.01Z"/>
    <path class="cls-2" d="m62.73,102.65h17.11v-57.02h-17.11v57.02Zm8.56-66.72c5.67,0,10.26-4.6,10.26-10.26s-4.59-10.26-10.26-10.26-10.27,4.6-10.27,10.26,4.6,10.26,10.27,10.26Z"/>
    <polygon class="cls-2" points="17.11 17.11 0 17.11 0 102.65 51.32 102.65 51.32 85.54 17.11 85.54 17.11 17.11"/>
  </g>
</svg>