<?xml version="1.0" encoding="UTF-8"?>
<svg id="Lag_1" xmlns="http://www.w3.org/2000/svg" version="1.1" viewBox="0 0 500 500">
  <!-- Generator: Adobe Illustrator 30.3.0, SVG Export Plug-In . SVG Version: 2.1.3 Build 182)  -->
  <defs>
    <style>
      .st0 {
        fill: #141414;
      }

      .st1 {
        stroke-width: 8.2px;
      }

      .st1, .st2 {
        fill: none;
        stroke: #141414;
        stroke-linecap: round;
        stroke-linejoin: round;
      }

      .st2 {
        stroke-width: 8.83px;
      }
    </style>
  </defs>
  <g id="Generativt_objekt">
    <path class="st0" d="M250.94,177c-6.54,4.89-15.45,2.13-18.93-4.45-3.77-7.12-.46-16.1,7.16-18.74,6.86-2.29,14.1.93,16.59,7.67,2.02,5.47.4,11.61-4.82,15.51Z"/>
    <g>
      <path class="st1" d="M371.91,171.75c9.57.82,18.38,6.4,20.71,15.95"/>
      <path class="st2" d="M216.03,145.47c13-13.82,27.81-11.79,43.13-.64,7.94,5.78,15.75,10.81,24.7,13.86"/>
      <path class="st1" d="M356.49,286.28c1.14-.67.96-2.58,1.95-3.56l9.71-9.72,9.54,20.01,14.91-18.9,4.93,15.57,5.95,7.8"/>
      <path class="st1" d="M261.12,230.21l39.02,40.4c11.3,8.8,24.11,14.57,38.29,16.66l8.26.24,20.16,4.52,36.63,5.43"/>
      <polyline class="st1" points="328.78 281.59 341.03 266.99 348.12 284.66"/>
      <polyline class="st1" points="315.45 230.95 328.66 255.89 343.05 232.88 353.5 256.85 367.53 232.82 380.46 257.9 392.62 230.22"/>
      <path class="st0" d="M249.14,324.8c-7.48,7.81-9.54,19.7-9.15,30.28.15,5.43-.26,20.7.43,26.11.4,3.35.45,7.34-.98,10.71-.4.98-1.15,1.73-2.03,2.16-3.29,1.57-6.68,1.76-9.98,1.99,0,0-8.66.56-8.66.56,0,0-17.33,1.12-17.33,1.12-.1,0-.2,0-.29,0-15.27.05-31.24-.38-46.3-2.89-24.95-3.59-48.74-12.33-72.07-21.37,0,0-2.68-1.01-2.68-1.01-4.63-1.53-8.06-6.05-6.93-11.07,0,0,1.19-5.67,1.19-5.67,2.79-12.6,6.38-32.08,8.88-44.93,7.25-35.58,13.51-78.04,25.27-112.21,8.32-25.9,20.39-51.67,40.97-70.31,20.36-18.85,46.79-26.97,74.26-24.98,17.69.91,32.7,6.62,47.45,15.96,7.39,4.47,14.2,8.47,22.09,10.23,0,0,2.49.53,2.49.53.9.14,1.86.25,2.77.32,19.9,2.1,40.24,3.04,60.02,6.47,15.58,3.07,31.36,6.15,44.65,15.85,6.66,4.99,11.58,12.01,15.15,19.43,3.5,7.37,5.56,15.2,6.88,22.97,1.99,9.56,1.28,17.74-5.98,24.89-2.46,2.42-5.45,4.22-8.65,5.44-.99.35-2.09.7-3.02.96,0,0-11.01,3.19-11.01,3.19-.16.05-.34.08-.5.11l-22.1,3.52c-.2.03-.42.05-.62.05-8.13.05-27.67.18-35.46.23-16-.65-31.42-4.28-47.12-6.29-1.64-.21-4.03-.5-5.64-.63-9.22-.85-18.47,1.92-26.99,5.29-24.14,8.85-49.78,9.38-71.11-6.74-1.73-1.34-3.39-2.76-4.97-4.27-1.1-1.12-1.74-2.95-.81-4.34.82-1.35,2.48-2.59,2.99-2.47.94.16,2.08-.12,2.87.59,1.53,1.38,3.14,2.7,4.8,3.91,5.97,4.38,12.61,7.68,19.65,9.58,14.63,3.73,29.77,1.02,43.86-3.98,3.37-1.19,8-3.04,11.47-3.87,6.58-1.78,13.62-2.44,20.45-1.71,1.14.1,3.36.41,4.48.53,15.45,1.96,30.81,5.57,46.25,6.23,7.78-.06,27.29-.17,35.23-.23,0,0-.62.05-.62.05,0,0,22.1-3.52,22.1-3.52l-.5.11,11.01-3.19c.44-.13.95-.27,1.34-.4l1.1-.37c4.94-1.8,9.11-6.17,10.05-11.37.67-3.29-.17-6.63-.64-9.91-2.39-14.02-7.45-28.32-18.91-37.24-11.58-8.47-27.03-11.56-41.11-14.3-19.49-3.37-39.85-4.32-59.59-6.41-.95-.08-1.98-.16-2.92-.34,0,0-3.12-.64-3.12-.64-.94-.17-2.16-.48-3.04-.78-1.75-.55-4.18-1.29-5.82-2.05-12.18-5.09-23.07-14.1-35.41-18.37-13.67-4.97-28.9-5.89-43.32-4.39-47.84,5.32-74.56,46.57-87.65,89.26-7.18,21.62-12.19,43.78-16.35,66.2-5.06,25.8-12.16,64.62-17.55,90.05,0,0-1.17,5.54-1.17,5.54-.06.39-.05.58,0,.67.03.1.11.24.39.47.31.31.96.52,1.38.71,0,0,2.68,1.01,2.68,1.01,22.93,8.87,46.05,17.43,70.44,20.94,9.19,1.47,18.69,2.3,28,2.6,3.47.06,13.46.19,17.1.19-1.67.11,17.49-1.15,17.03-1.11,0,0,8.67-.56,8.67-.56,2.85-.16,5.36-.42,6.97-1.21,0,0-2.03,2.16-2.03,2.16.84-2.18.66-4.29.42-6.79-.35-2.34-.45-6.7-.41-9.28,0-4.57-.09-19.24-.07-23.42.46-7.62,1.95-15.25,5.61-22.08,1.56-2.91,3.51-5.66,5.8-8.08,3.86-3.85,9.57,1.63,5.94,5.65h0Z"/>
      <polyline class="st1" points="293.62 227.05 303.2 249.54 314.59 236.57"/>
      <polyline class="st1" points="415.33 217.97 405.06 249.26 393.54 235.58"/>
      <path class="st1" d="M175.14,261.07c5.36,16.92,15.03,32.42,29.85,43.14,9.87,7.14,20.92,10.69,32.64,12.75,4.75.84,9.55,1.64,14.58,1.38,13.41-.68,26.38-.52,39.78,1.17l20.25,2.55,40.31,6.03c14.35,2.15,28.07.12,38.8-10.08,4.14-3.93,8.22-7.9,10.68-12.94l1.46-7.6"/>
      <path class="st1" d="M321.25,279.11c-.62-7.93-2.85-16.24-7.86-13.61l-8.14,4.28"/>
    </g>
  </g>
</svg>